<?xml version="1.0" encoding="UTF-8"?>
<svg id="Main_logo" data-name="Main logo" xmlns="http://www.w3.org/2000/svg" xmlns:xlink="http://www.w3.org/1999/xlink" viewBox="0 0 500 500">
  <defs>
    <style>
      .cls-1 {
        fill: none;
      }

      .cls-2 {
        clip-path: url(#clippath-1);
      }

      .cls-3 {
        clip-path: url(#clippath-3);
      }

      .cls-4 {
        clip-path: url(#clippath-2);
      }

      .cls-5 {
        fill: #c2922f;
      }

      .cls-6 {
        fill: #ee9389;
      }

      .cls-7 {
        clip-path: url(#clippath);
      }
    </style>
    <clipPath id="clippath">
      <rect class="cls-1" x="167.01" y="175.43" width="69.33" height="110.47"/>
    </clipPath>
    <clipPath id="clippath-1">
      <rect class="cls-1" x="221.68" y="164.76" width="62.56" height="121.14"/>
    </clipPath>
    <clipPath id="clippath-2">
      <rect class="cls-1" x="235.01" y="284.76" width="1.33" height="1.14"/>
    </clipPath>
    <clipPath id="clippath-3">
      <rect class="cls-1" x="211.92" y="203.6" width="25.76" height="51"/>
    </clipPath>
  </defs>
  <g id="H">
    <rect class="cls-5" x="62.4" y="155.87" width="12" height="47.08"/>
    <rect class="cls-5" x="139.25" y="155.87" width="12.02" height="47.08"/>
    <rect class="cls-5" x="62.4" y="245.8" width="12" height="43.58"/>
    <rect class="cls-5" x="139.25" y="245.8" width="12.02" height="43.58"/>
  </g>
  <g id="Heart">
    <path class="cls-6" d="M58.27,226.97v-5.25h-5.6v5.25h-1.6c.05-.32.09-.77.1-1.35.01-.58.02-1.26.02-2.04v-4.6c0-.76-.01-1.44-.02-2.02-.02-.59-.05-1.05-.1-1.35h1.6v4.88h5.6v-4.88h1.58c-.06.31-.09.76-.1,1.35v8.67c.01.58.05,1.04.1,1.35h-1.58Z"/>
    <path class="cls-6" d="M84.25,220.37v1.25h-4.44v4.06h4c.53-.01.94-.05,1.25-.13v1.42h-6.85c.05-.32.09-.77.1-1.35.01-.58.02-1.26.02-2.04v-4.6c0-.76-.01-1.44-.02-2.02-.02-.59-.05-1.05-.1-1.35h6.63v1.27h-5.02v3.5h4.44Z"/>
    <path class="cls-6" d="M101.95,226.97c.07-.17.14-.33.21-.5.08-.17.17-.35.25-.56.08-.22.17-.46.27-.73.11-.28.23-.6.38-.98l3.1-8.6h1.69l3.1,8.6c.14.36.26.68.35.96.11.28.21.53.29.75.08.21.16.41.23.58.08.17.15.33.21.48h-1.58l-1.06-3h-4.79l-1.04,3h-1.6ZM106.99,217.12l-1.98,5.65h3.96l-1.98-5.65Z"/>
    <path class="cls-6" d="M131,223.58v2.06c.01.58.05,1.03.1,1.33h-1.71c.05-.32.09-.77.1-1.35.01-.58.02-1.26.02-2.04v-5.52c0-.36-.01-.69-.02-1,0-.32-.02-.6-.04-.85-.02-.25-.04-.45-.06-.6.26-.01.56-.03.9-.04.28-.01.61-.02,1-.02.39-.01.81-.02,1.27-.02.59,0,1.15.06,1.65.19s.93.32,1.29.58c.36.25.64.58.83.98.21.41.31.89.31,1.44,0,.47-.08.9-.23,1.27-.16.36-.35.68-.58.94-.24.27-.51.48-.81.65-.31.17-.62.3-.94.4.15.21.34.47.56.77.23.31.48.64.73.98.26.35.53.7.79,1.06.26.35.51.68.73.98.23.31.44.57.6.79.17.21.28.35.35.44h-2l-3.27-4.88h-1.58v1.48ZM131,220.89h1.48c.88,0,1.54-.18,2-.54.46-.36.69-.86.69-1.52s-.22-1.17-.65-1.52c-.42-.36-1.1-.54-2.04-.54-.28,0-.54.01-.79.02h-.69v4.1Z"/>
    <path class="cls-6" d="M163.33,215.6v1.44c-.31-.07-.61-.11-.92-.13-.31-.03-.64-.04-1-.04h-1.85v6.71c0,.78,0,1.46.02,2.04.01.58.05,1.04.13,1.35h-1.79c.07-.32.11-.77.13-1.35.03-.58.04-1.26.04-2.04v-6.71h-1.83c-.35,0-.68.02-.98.04-.31.02-.62.06-.94.13v-1.44h9Z"/>
  </g>
  <g id="W">
    <polygon class="cls-6" points="433.13 202.95 446.92 155.87 434.5 155.87 421.53 202.95 433.13 202.95"/>
    <polygon class="cls-6" points="313.9 202.95 301.96 155.87 289.94 155.87 301.98 202.95 313.9 202.95"/>
    <polygon class="cls-6" points="359.83 202.95 367.38 175.71 374.28 202.95 385.31 202.95 373.11 155.87 362.42 155.87 349.44 202.95 359.83 202.95"/>
    <polygon class="cls-6" points="337.64 245.8 330.94 270.1 324.77 245.8 312.94 245.8 324.09 289.37 335.9 289.37 347.97 245.8 337.64 245.8"/>
    <polygon class="cls-6" points="409.72 245.8 402.86 270.69 396.41 245.8 385.13 245.8 396.17 289.37 407.81 289.37 420.58 245.8 409.72 245.8"/>
  </g>
  <g id="Worship">
    <path class="cls-5" d="M431.54,215.6v1.13h-1.92v9.13h1.92v1.13h-5.27v-1.13h1.88v-9.13h-1.88v-1.13h5.27Z"/>
    <path class="cls-5" d="M451.3,223.58v2.06c.01.58.05,1.03.1,1.33h-1.71c.05-.32.09-.77.1-1.35.01-.58.02-1.26.02-2.04v-5.52c0-.36-.01-.69-.02-1,0-.32-.02-.6-.04-.85-.02-.25-.04-.45-.06-.6.32-.01.67-.03,1.04-.04.3-.01.65-.02,1.04-.02.4-.01.81-.02,1.23-.02.63,0,1.19.08,1.71.23.51.14.94.35,1.29.65.36.28.64.64.83,1.06.19.43.29.93.29,1.5s-.1,1.08-.29,1.54c-.18.46-.45.85-.81,1.17-.35.32-.78.56-1.29.73-.52.17-1.09.25-1.73.25h-.9c-.29-.01-.56-.04-.81-.08v1.02ZM451.3,221.35c.25.04.5.07.75.08h.83c.55,0,1.01-.06,1.35-.19.36-.13.65-.29.85-.5.22-.22.38-.47.46-.75.08-.28.13-.57.13-.9,0-.3-.05-.59-.15-.88-.08-.29-.24-.54-.46-.75-.21-.22-.49-.4-.83-.52-.35-.13-.79-.19-1.31-.19h-.5c-.14,0-.27.01-.4.02h-.73v4.56Z"/>
    <path class="cls-5" d="M300.1,225.52l2.42-9.92h1.73c-.06.16-.12.32-.19.5-.07.17-.14.36-.21.58-.07.22-.15.48-.23.77-.08.28-.18.6-.27.98l-2.38,8.54h-1.77l-2.67-9.17-2.65,9.17h-1.77l-2.38-8.54c-.1-.36-.19-.69-.27-.98s-.17-.55-.25-.77c-.07-.22-.14-.42-.21-.58-.06-.18-.11-.34-.17-.5h1.73l2.44,9.94,2.81-9.94h1.44l2.83,9.92Z"/>
    <path class="cls-5" d="M329.33,221.39c0-.71-.08-1.34-.25-1.92-.16-.58-.38-1.07-.67-1.46-.29-.4-.65-.71-1.06-.92-.41-.22-.85-.33-1.33-.33s-.96.1-1.38.31c-.41.21-.76.51-1.06.9-.29.38-.52.83-.69,1.38-.16.53-.23,1.14-.23,1.81s.07,1.35.23,1.94c.17.57.4,1.06.69,1.46.29.41.64.72,1.04.94.42.21.88.31,1.4.31.47,0,.91-.09,1.31-.29.4-.21.75-.5,1.04-.88.3-.38.54-.83.71-1.38.17-.55.25-1.18.25-1.88ZM330.83,221.2c0,.93-.14,1.77-.42,2.5-.28.74-.65,1.36-1.1,1.88-.46.52-.98.91-1.56,1.19-.58.28-1.19.42-1.81.42s-1.23-.13-1.81-.38c-.57-.26-1.08-.64-1.52-1.13-.45-.5-.8-1.11-1.06-1.83-.27-.72-.4-1.55-.4-2.5s.14-1.76.42-2.5c.28-.73.65-1.36,1.1-1.88.46-.51.98-.9,1.58-1.17.59-.28,1.21-.42,1.83-.42s1.22.14,1.79.4c.57.25,1.07.63,1.5,1.13.44.49.8,1.09,1.06,1.81.26.72.4,1.55.4,2.48Z"/>
    <path class="cls-5" d="M350.27,223.58v2.06c.01.58.05,1.03.1,1.33h-1.71c.05-.32.09-.77.1-1.35.01-.58.02-1.26.02-2.04v-5.52c0-.36-.01-.69-.02-1,0-.32-.02-.6-.04-.85-.02-.25-.04-.45-.06-.6.26-.01.56-.03.9-.04.28-.01.61-.02,1-.02.39-.01.81-.02,1.27-.02.59,0,1.15.06,1.65.19s.93.32,1.29.58c.36.25.64.58.83.98.21.41.31.89.31,1.44,0,.47-.08.9-.23,1.27-.16.36-.35.68-.58.94-.24.27-.51.48-.81.65-.31.17-.62.3-.94.4.15.21.34.47.56.77.23.31.48.64.73.98.26.35.53.7.79,1.06.26.35.51.68.73.98.23.31.44.57.6.79.17.21.28.35.35.44h-2l-3.27-4.88h-1.58v1.48ZM350.27,220.89h1.48c.88,0,1.54-.18,2-.54.46-.36.69-.86.69-1.52s-.22-1.17-.65-1.52c-.42-.36-1.1-.54-2.04-.54-.28,0-.54.01-.79.02h-.69v4.1Z"/>
    <path class="cls-5" d="M380.72,217.62c-.28-.15-.54-.28-.77-.4-.24-.11-.47-.19-.69-.25-.22-.07-.45-.11-.67-.15-.22-.04-.46-.06-.71-.06-.32,0-.61.05-.88.15-.25.1-.47.22-.67.38-.18.16-.32.33-.42.54-.1.2-.15.4-.15.6,0,.22.03.42.08.58.05.17.17.33.35.5.18.16.44.31.77.46.34.14.8.29,1.35.46.51.16.97.33,1.38.52.4.2.73.43,1,.69.28.27.48.56.63.9.14.32.21.7.21,1.13,0,.52-.1.99-.31,1.42-.21.43-.49.81-.85,1.13-.35.31-.76.55-1.23.73-.47.17-.97.25-1.5.25-.38,0-.74-.03-1.1-.08-.36-.06-.7-.13-1.02-.23-.31-.09-.59-.21-.85-.33-.27-.13-.49-.26-.69-.42l.33-1.6c.53.46,1.07.79,1.63,1,.55.2,1.13.29,1.71.29.3,0,.6-.04.9-.13.29-.09.55-.23.77-.4.22-.17.4-.38.54-.63.14-.25.21-.53.21-.85,0-.19-.04-.38-.1-.56-.07-.19-.2-.38-.4-.54-.2-.18-.48-.35-.85-.52-.38-.18-.86-.36-1.46-.54-.61-.18-1.11-.38-1.5-.6-.38-.22-.68-.46-.9-.71-.22-.26-.38-.54-.46-.83-.07-.29-.1-.6-.1-.94s.07-.68.21-1.04c.14-.38.35-.71.65-1.02.29-.32.67-.58,1.13-.79.47-.21,1.03-.31,1.69-.31.29,0,.57.02.83.04.26.03.51.07.75.13.25.06.49.14.73.23.25.08.5.19.75.31l-.31,1.52Z"/>
    <path class="cls-5" d="M406.51,226.97v-5.25h-5.6v5.25h-1.6c.05-.32.09-.77.1-1.35.01-.58.02-1.26.02-2.04v-4.6c0-.76-.01-1.44-.02-2.02-.02-.59-.05-1.05-.1-1.35h1.6v4.88h5.6v-4.88h1.58c-.06.31-.09.76-.1,1.35v8.67c.01.58.05,1.04.1,1.35h-1.58Z"/>
  </g>
  <g id="Cross_Heart" data-name="Cross Heart">
    <g class="cls-7">
      <path class="cls-5" d="M221.87,187.93c.47.82.84,1.76,1.45,2.43,2.69,3.01,5.45,5.93,8.19,8.89-.15.23-.31.46-.46.7-1.01-.78-2.03-1.56-3.04-2.33-6.33-4.88-12.7-9.66-20.03-12.38-6.13-2.27-12.27-2.68-18.38.02-12.28,5.43-17.69,20.85-12.63,35.94,3.92,11.68,11.26,20.08,19.83,27.17,9.9,8.18,20.02,15.98,29.92,24.15,3.85,3.18,7.4,6.87,8.84,12.45-9.06-11.88-22.05-16.52-33.42-24.11-9.86-6.57-19.53-13.31-26.59-23.97-7.12-10.74-10.3-22.64-7.26-36.02,4.34-19.13,20.95-29.23,37.4-22.48,4.85,1.99,9.2,5.61,13.79,8.45.74.46,1.58.74,2.38,1.1Z"/>
    </g>
    <g class="cls-2">
      <path class="cls-6" d="M236.96,284.81c-.14-.76-.51-1.58-.39-2.28,2.22-12.47,8.49-22.35,15.27-31.93,5.66-8.02,11.42-15.95,16.78-24.23,3.81-5.9,6.06-12.72,7.22-20.07,3.33-21.02-15.14-39.04-32.66-33.42-7.69,2.47-13.96,7.64-19.68,13.86-.36.4-.77.75-1.15,1.12-.12-.16-.23-.31-.35-.47,6.42-11.03,14.64-19.18,26.38-21.25,18.39-3.25,35.7,14.8,35.02,36.31-.39,12.37-4.84,22.97-11.45,32.19-6.51,9.09-13.81,17.42-20.74,26.1-5.77,7.21-11.14,14.74-14.24,24.06Z"/>
    </g>
    <g class="cls-4">
      <path class="cls-6" d="M235.57,285.84l.18-.11c-.17.05-.22.08-.18.11Z"/>
    </g>
    <path class="cls-5" d="M221.99,187.4c.11.16.23.32.35.47-.18.04-.35.08-.53.11.06-.19.12-.39.18-.59Z"/>
    <g class="cls-3">
      <path class="cls-5" d="M222.47,203.69c-.19.07-.22.11-.31.35-.17.49-.18,1.2-.02,2.09.03.16.06.39.07.52s.04.29.06.36c.03.12.1.73.17,1.4.02.19.06.59.09.9.03.31.07.81.09,1.11.11,1.79.18,2.82.22,3.65.03.52.07,1.14.09,1.39.03.34.09,1.37.09,1.67,0,.02-.15.06-.34.08-.19.03-.55.07-.81.1s-.59.07-.74.09c-.15.02-.49.05-.76.07s-.52.05-.57.05c-.05.01-.35.04-.67.08-.31.03-.88.08-1.26.12-.38.04-.93.09-1.24.12-.31.03-.61.07-.68.08-.07.01-.34.04-.59.07-.8.08-1.36.16-1.51.2-.29.07-.83.15-1.31.19-.57.04-.65.08-.55.25.22.38,1.26,1.07,2.3,1.55.11.05.83.04,1.14-.01.24-.04.77-.13,1.26-.21.43-.07,1.42-.18,2.1-.24.3-.03.61-.06.68-.07s.36-.05.65-.07c1.77-.18,2.43-.24,2.84-.28h.17s.01.24.01.24c.01.14.04.74.06,1.35.03.6.06,1.47.08,1.94.02.46.05,1.59.07,2.5.02.91.05,1.97.07,2.37.02.4.05,1.68.07,2.85.02,1.18.05,2.45.07,2.84s.04,1.54.05,2.57c.02,1.03.04,2.22.06,2.66.02.44.06,1.47.09,2.3.03.83.07,2.16.1,2.96.03.8.07,1.72.09,2.05s.05.89.07,1.24c.07,1.33.18,2.77.3,4.02.06.59.09,1.01.16,1.94.05.72.09.81.11.32.02-.39.02-.4.04-.16.02.13.04.4.06.59.05.68.06.07.06-2.35-.01-2.61.03-2.68.1-.18.06,2.35.08,2.33.18-.36.05-1.24.02-6.85-.04-8.62-.02-.62-.06-1.78-.08-2.57-.02-.79-.05-1.85-.07-2.35-.01-.5-.03-3.84-.04-7.42,0-5.85-.02-8.28-.09-10.23-.02-.45-.02-.66.02-.68.02-.02.2-.06.41-.08,1.47-.18,2.29-.28,2.9-.38.27-.04.68-.09.92-.13.24-.03.46-.06.51-.07.11-.03,1.58-.22,2.66-.34.69-.08,1.14-.13,2.39-.24,1.2-.11,1.39-.14,1.54-.18.14-.04.53-.12.87-.18.44-.08.45-.09.15-.41-.21-.22-.44-.39-.53-.39-.03,0-.09-.05-.13-.11-.16-.22-.94-.66-1.58-.9-.18-.06-.23-.07-.36-.04-.08.02-.28.06-.44.08-.16.03-.31.06-.35.07-.08.04-.77.14-1.38.2-1.55.15-3.07.3-3.18.32-.05.01-.28.04-.52.07-.23.03-.67.08-.97.12-.3.04-.72.09-.95.13-.22.03-.45.06-.49.07s-.26.05-.47.08c-.21.03-.46.07-.56.08-.1.02-.25.04-.33.04h-.15l-.03-.82c-.02-.45-.01-2.02.01-3.49.03-2.89,0-6.1-.06-6.34-.02-.08-.08-.33-.14-.57-.11-.52-.19-.69-.45-1.1-.21-.33-.36-.46-.86-.77-.32-.19-.5-.23-.72-.15Z"/>
    </g>
  </g>
  <g id="OF">
    <path class="cls-6" d="M241,162.1c-.27-.57-.56-1.05-.9-1.44-.33-.4-.7-.71-1.08-.92-.39-.21-.79-.32-1.19-.33-.39-.03-.78.05-1.17.23-.39.2-.71.45-.96.75-.25.31-.42.67-.5,1.08-.09.42-.11.87-.04,1.35.06.49.21,1,.46,1.54.27.57.56,1.05.9,1.44.33.39.69.7,1.08.92.39.21.78.33,1.19.35.4.02.8-.07,1.21-.27.38-.17.69-.4.94-.71.25-.32.42-.68.52-1.08.09-.42.11-.86.04-1.35-.07-.48-.24-1.01-.5-1.56ZM242.13,161.39c.34.74.54,1.45.58,2.13.05.68,0,1.31-.17,1.9-.17.57-.44,1.07-.81,1.5-.36.43-.8.77-1.31,1-.49.24-1.01.36-1.56.38-.54,0-1.08-.11-1.63-.33-.53-.22-1.03-.57-1.5-1.04-.48-.47-.9-1.08-1.25-1.83-.33-.73-.53-1.45-.58-2.15-.05-.69.01-1.32.19-1.9.17-.57.44-1.07.81-1.5.38-.44.81-.78,1.31-1,.5-.23,1.02-.36,1.56-.38.54-.01,1.07.1,1.6.33.54.24,1.05.59,1.52,1.06.47.47.88,1.08,1.23,1.83Z"/>
    <path class="cls-6" d="M249.78,159.26l.19,1.06-3.9.67.27,1.63c.11.66.21,1.24.31,1.75.09.52.19.9.27,1.15l-1.46.25c0-.28-.04-.67-.13-1.19-.08-.51-.18-1.09-.29-1.75l-.67-3.94c-.13-.68-.23-1.27-.31-1.77-.09-.5-.19-.89-.29-1.17l5.83-1,.21,1.1-4.46.77.52,3.1,3.9-.67Z"/>
  </g>
</svg>